<svg id="Capa_1" data-name="Capa 1" xmlns="http://www.w3.org/2000/svg" xmlns:xlink="http://www.w3.org/1999/xlink" viewBox="0 0 364.62 87.45"><defs><style>.cls-1{fill:#16252a;}.cls-2,.cls-3{stroke:#16252a;stroke-miterlimit:10;stroke-width:3px;}.cls-2{fill:url(#Degradado_sin_nombre_4);}.cls-3{fill:url(#Degradado_sin_nombre_4-2);}</style><linearGradient id="Degradado_sin_nombre_4" x1="1.5" y1="58.42" x2="89.1" y2="58.42" gradientUnits="userSpaceOnUse"><stop offset="0" stop-color="#f59d45"/><stop offset="1" stop-color="#ef80b1"/></linearGradient><linearGradient id="Degradado_sin_nombre_4-2" x1="3.11" y1="36.4" x2="90.72" y2="36.4" xlink:href="#Degradado_sin_nombre_4"/></defs><path class="cls-1" d="M105.91,16.61h15.82V68.55H105.91Z"/><path class="cls-1" d="M161.28,34.07q5.31,4.51,5.32,13.9V68.55H151.9v-5q-2.73,5.73-10.85,5.74a17.31,17.31,0,0,1-7.74-1.58,11.08,11.08,0,0,1-6.47-10.32,9.73,9.73,0,0,1,4.34-8.61q4.33-2.94,13.16-2.94h6.37q-.78-4.48-7.21-4.48a18.24,18.24,0,0,0-5.25.8,14.61,14.61,0,0,0-4.55,2.21l-5-10.43a27.61,27.61,0,0,1,7.94-3.19,38.41,38.41,0,0,1,9.28-1.15Q156,29.56,161.28,34.07ZM148.82,58.82a5.33,5.33,0,0,0,2-2.73V53.43h-3.92q-4.83,0-4.83,3.22a2.77,2.77,0,0,0,1,2.2,4.07,4.07,0,0,0,2.77.88A5.26,5.26,0,0,0,148.82,58.82Z"/><path class="cls-1" d="M211.43,33.83q4.31,4.26,4.31,12.88V68.55H199.92V49.44c0-4.39-1.57-6.58-4.69-6.58a5.5,5.5,0,0,0-4.31,1.85c-1.1,1.24-1.64,3.19-1.64,5.85v18H173.46V30.26h15V34a14.39,14.39,0,0,1,5.18-3.36,17.66,17.66,0,0,1,6.37-1.12Q207.13,29.56,211.43,33.83Z"/><path class="cls-1" d="M265.64,16.61V68.55h-15V65.4q-3.42,3.84-10.5,3.85a18.38,18.38,0,0,1-9.27-2.42,17.47,17.47,0,0,1-6.72-7,21.56,21.56,0,0,1-2.49-10.5A21.33,21.33,0,0,1,224.1,38.9,17.52,17.52,0,0,1,230.82,32a18.37,18.37,0,0,1,9.27-2.41q6.38,0,9.73,3.29V16.61ZM248.35,54.93a8.13,8.13,0,0,0,1.75-5.56,8,8,0,0,0-1.75-5.53,6.1,6.1,0,0,0-9,0,8,8,0,0,0-1.75,5.53,8.18,8.18,0,0,0,1.75,5.56,6,6,0,0,0,9,0Z"/><path class="cls-1" d="M315,16.61V68.55H299.94V65.4q-3.42,3.84-10.5,3.85a18.38,18.38,0,0,1-9.27-2.42,17.34,17.34,0,0,1-6.72-7A21.56,21.56,0,0,1,271,49.37a21.33,21.33,0,0,1,2.49-10.47A17.39,17.39,0,0,1,280.17,32a18.37,18.37,0,0,1,9.27-2.41q6.38,0,9.73,3.29V16.61ZM297.7,54.93a8.13,8.13,0,0,0,1.75-5.56,8,8,0,0,0-1.75-5.53,6.1,6.1,0,0,0-9,0A8,8,0,0,0,287,49.37a8.18,8.18,0,0,0,1.75,5.56,6,6,0,0,0,9,0Z"/><path class="cls-1" d="M364.62,30.26,348.87,69.32q-3,7.49-7.49,10.5a19.3,19.3,0,0,1-11,3,23.14,23.14,0,0,1-6.47-1,14.63,14.63,0,0,1-5.15-2.48L324,68.55a10.78,10.78,0,0,0,2.7,1.47,8.36,8.36,0,0,0,2.9.56A4.9,4.9,0,0,0,333.54,69l-16.1-38.78h16.24l7.91,20.51,8.05-20.51Z"/><path class="cls-2" d="M7.23,33.77,3.9,35.66A4.73,4.73,0,0,0,2.79,43l37.67,40L85.1,56.66a8.14,8.14,0,0,0,2.14-12.2"/><path class="cls-3" d="M4.4,31.25l37.67,40,44.65-26.4a8.15,8.15,0,0,0,1-13.32L53.58,3.65a9.56,9.56,0,0,0-10.75-.91L5.52,23.89A4.73,4.73,0,0,0,4.4,31.25Z"/></svg>